Coordinates
version=1
nRows=22
nColumns=24
inDegrees=yes

Units are S.I. units (second, meters, Newtons, ...)
Angles are in degrees.

endheader
time	pelvis_tilt	pelvis_list	pelvis_rotation	pelvis_tx	pelvis_ty	pelvis_tz	hip_flexion_r	hip_adduction_r	hip_rotation_r	knee_angle_r	ankle_angle_r	subtalar_angle_r	mtp_angle_r	hip_flexion_l	hip_adduction_l	hip_rotation_l	knee_angle_l	ankle_angle_l	subtalar_angle_l	mtp_angle_l	lumbar_extension	lumbar_bending	lumbar_rotation
      0.81233333	     -9.85430330	     -1.87776490	     -1.13440233	     -0.04862781	      1.03417533	      0.33740876	     -3.47869536	      4.91550011	     -1.16355042	    -10.67553430	     18.38433814	      0.01770272	      3.05978727	     35.24168155	     -2.41635396	     -1.69722257	     -3.81598927	      9.17240147	      8.64686730	      1.38217383	     -7.29480393	      6.08089545	      5.10922771
      0.81650000	     -9.83267299	     -1.85829897	     -1.20087148	     -0.04255996	      1.03328753	      0.33730349	     -3.69310675	      4.84783327	     -1.19701738	    -11.03659306	     18.49471781	      0.24148160	      3.12585611	     35.31325308	     -2.34015804	     -1.63605281	     -4.21824879	      9.13041351	      8.44648774	      1.39891634	     -7.28347833	      5.95248332	      5.12362142
      0.82066667	     -9.84609173	     -1.84618310	     -1.26339900	     -0.03646047	      1.03234922	      0.33717988	     -3.85692213	      4.78547370	     -1.24924791	    -11.42717287	     18.58968359	      0.49364024	      3.21410841	     35.42969554	     -2.26874872	     -1.54266198	     -4.69814372	      9.04662970	      8.21871775	      1.42454616	     -7.22312883	      5.83815124	      5.14939517
      0.82483333	     -9.81560306	     -1.81479641	     -1.32264206	     -0.03031231	      1.03152294	      0.33706588	     -4.06226201	      4.69903987	     -1.31859890	    -11.83087210	     18.66823084	      0.76038438	      3.33720068	     35.49114498	     -2.18018370	     -1.44571461	     -5.22360179	      8.91441667	      7.96798121	      1.46359927	     -7.20678099	      5.69652041	      5.16941351
      0.82900000	     -9.80766754	     -1.77751441	     -1.38622024	     -0.02413945	      1.03070113	      0.33696704	     -4.22947818	      4.60540241	     -1.37241947	    -12.26416119	     18.71349665	      1.00726361	      3.49413776	     35.57547935	     -2.08980703	     -1.32079700	     -5.80302701	      8.74459155	      7.68863957	      1.51623309	     -7.16675466	      5.53946590	      5.18602574
      0.83316667	     -9.81458893	     -1.73963088	     -1.45582075	     -0.01793307	      1.02988535	      0.33688638	     -4.36703007	      4.51064468	     -1.41403236	    -12.72828092	     18.73440659	      1.24134065	      3.65149139	     35.67619078	     -2.00472609	     -1.17891959	     -6.43685646	      8.56246162	      7.41344204	      1.56919454	     -7.10783692	      5.36474176	      5.19765532
      0.83733333	     -9.80875694	     -1.69836543	     -1.50941935	     -0.01168259	      1.02911857	      0.33676275	     -4.51272855	      4.40702929	     -1.49410548	    -13.20372533	     18.73224469	      1.51108791	      3.86846775	     35.76432036	     -1.90721893	     -1.01525923	     -7.11172422	      8.30279676	      7.09219450	      1.64137192	     -7.04297319	      5.20478689	      5.21191166
      0.84150000	     -9.80475430	     -1.64366613	     -1.57143159	     -0.00540711	      1.02840077	      0.33665322	     -4.63835024	      4.28589868	     -1.56432889	    -13.71560749	     18.69803006	      1.76732486	      4.12432716	     35.84898073	     -1.80329864	     -0.84280194	     -7.81740473	      8.01225441	      6.75319363	      1.72357430	     -6.98487981	      5.01530284	      5.22333376
      0.84566667	     -9.77210462	     -1.59745300	     -1.63248690	      0.00088777	      1.02777525	      0.33657028	     -4.80263741	      4.18292181	     -1.54050907	    -14.20568662	     18.54318098	      1.82125532	      4.17358694	     35.92778736	     -1.71848198	     -0.75124183	     -8.60913973	      7.75782814	      6.59199684	      1.73537509	     -6.98651446	      4.84168264	      5.20969869
      0.84983333	     -9.80816090	     -1.54178849	     -1.69454415	      0.00721287	      1.02707411	      0.33641795	     -4.84196154	      4.04768748	     -1.65926780	    -14.79844865	     18.39404956	      2.12267975	      7.29460602	     36.02107588	     -1.60063298	     -0.36698532	     -9.30289001	      7.30170869	      5.89225953	      2.65442081	     -6.84754632	      4.64993194	      5.18325097
      0.85400000	     -9.79151617	     -1.45694562	     -1.75624162	      0.01359966	      1.02650004	      0.33629063	     -4.92354023	      3.87605147	     -1.80187908	    -15.42925248	     18.29398570	      2.47941179	      7.37121982	     36.10604906	     -1.48409709	     -0.29807608	    -10.12631387	      6.96264869	      5.75019220	      2.66112795	     -6.79657853	      4.39628060	      5.22388989
      0.85816667	     -9.79428755	     -1.39306386	     -1.81493829	      0.01997863	      1.02593973	      0.33612689	     -4.97047718	      3.72673259	     -1.91011508	    -16.08132086	     18.12165413	      2.77546818	      7.48837536	     36.20979570	     -1.37863089	     -0.12109556	    -10.96341938	      6.59846800	      5.42892548	      2.66857986	     -6.72007835	      4.19150970	      5.22937801
      0.86233333	     -9.77235205	     -1.31465699	     -1.86214950	      0.02638222	      1.02546419	      0.33592303	     -5.02463842	      3.55449107	     -2.04999881	    -16.77103969	     17.97218244	      3.09458014	      7.72234122	     36.28391089	     -1.25105233	      0.08135429	    -11.81110779	      6.20705779	      5.02163201	      2.68102503	     -6.66484012	      3.97296731	      5.23147821
      0.86650000	     -9.76236000	     -1.24690194	     -1.91572656	      0.03279800	      1.02504164	      0.33572242	     -5.05014430	      3.39375924	     -2.14589365	    -17.47401627	     17.60912328	      3.27402515	     10.71082957	     36.36086697	     -1.13844126	      0.31062913	    -12.65129444	      5.78443347	      4.59498597	      2.84227747	     -6.60166862	      3.76844557	      5.19912072
      0.87066667	     -9.73418708	     -1.14857817	     -1.97788568	      0.03927058	      1.02469136	      0.33553468	     -5.06548558	      3.18802198	     -2.28197267	    -18.24396963	     17.30818173	      3.61314408	     10.76877500	     36.43251976	     -1.01838853	      0.38533347	    -13.54266134	      5.45108399	      4.39935859	      2.83372021	     -6.55162938	      3.50061809	      5.20922290
      0.87483333	     -9.70842126	     -1.06345906	     -2.02609263	      0.04571937	      1.02437075	      0.33526577	     -5.04298108	      2.98722585	     -2.45482807	    -19.08251277	     17.03937174	      3.96296014	     10.91936283	     36.50783658	     -0.89485166	      0.53490307	    -14.44109992	      5.10702141	      4.06004733	      2.81530781	     -6.50056806	      3.27536194	      5.21620126
      0.87900000	     -9.66750924	     -0.94674083	     -2.08926886	      0.05221326	      1.02417396	      0.33503521	     -5.01986197	      2.75175226	     -2.56850665	    -19.93669548	     16.60378828	      4.17952823	     13.11970131	     36.52712768	     -0.74813200	      0.70907574	    -15.27322447	      4.74129646	      3.62173245	      2.59935961	     -6.45934826	      2.99336583	      5.16604159
      0.88316667	     -9.62846894	     -0.87077438	     -2.13356421	      0.05868523	      1.02397615	      0.33472742	     -4.95841044	      2.54637200	     -2.76514446	    -20.86172812	     16.19755262	      4.56406189	     13.22237293	     36.59957172	     -0.64665197	      0.76004410	    -16.21344777	      4.50035811	      3.50387150	      2.58207594	     -6.43409540	      2.78495285	      5.19543258
      0.88733333	     -9.59123731	     -0.76436908	     -2.18899153	      0.06518898	      1.02385319	      0.33442815	     -4.86330374	      2.30203860	     -2.93867153	    -21.84078821	     15.74816925	      4.91157884	     13.40394610	     36.63709473	     -0.51885008	      0.83554138	    -17.08915827	      4.24231183	      3.26625454	      2.54966570	     -6.39341350	      2.52622990	      5.19356092
      0.89150000	     -9.52870431	     -0.65072648	     -2.23950732	      0.07168877	      1.02382099	      0.33410130	     -4.76314131	      2.04060527	     -3.12472047	    -22.87369010	     15.25946271	      5.27126591	     13.68622081	     36.63577779	     -0.38199075	      0.90035251	    -17.94542179	      4.02023043	      3.03881626	      2.49941827	     -6.38502261	      2.26213226	      5.18791638
      0.89566667	     -9.46382028	     -0.54669310	     -2.29372386	      0.07819210	      1.02386660	      0.33377252	     -4.64500647	      1.78948251	     -3.26991931	    -23.91768486	     14.58216880	      5.48107658	     17.52674842	     36.61686997	     -0.25697990	      0.96123958	    -18.77971176	      3.84262940	      2.81662467	      1.82460074	     -6.37965066	      2.01427887	      5.16212996
      0.89983333	     -9.38277881	     -0.42856632	     -2.34046405	      0.08471263	      1.02398094	      0.33344651	     -4.51291734	      1.51824545	     -3.42549879	    -25.02280982	     13.93866284	      5.77230783	     17.56509969	     36.56935327	     -0.12451516	      0.96168272	    -19.59583592	      3.73474703	      2.72687939	      1.81385115	     -6.39217905	      1.72534450	      5.14447515
